<?xml version="1.0" encoding="UTF-8" standalone="no"?>
<svg width="56px" height="53px" viewBox="0 0 56 53" version="1.1" xmlns="http://www.w3.org/2000/svg" xmlns:xlink="http://www.w3.org/1999/xlink">
    <!-- Generator: Sketch 39.1 (31720) - http://www.bohemiancoding.com/sketch -->
    <title>Logo icon</title>
    <desc>Created with Sketch.</desc>
    <defs></defs>
    <g id="Welcome" stroke="none" stroke-width="1" fill="none" fill-rule="evenodd">
        <g id="Desktop" transform="translate(-936.000000, -33.000000)">
            <rect id="Rectangle-10" fill="#FFFFFF" x="0" y="0" width="1024" height="1697"></rect>
            <g id="Logo-icon" transform="translate(936.000000, 33.000000)" fill="#020202">
                <polygon id="Fill-1" points="0 2.54438971 55.9627924 2.54438971 55.9627924 0.778667781 0 0.778667781"></polygon>
                <polygon id="Fill-2" points="0 8.72937634 55.9627924 8.72937634 55.9627924 6.96117447 0 6.96117447"></polygon>
                <polygon id="Fill-3" points="0 14.911883 55.9627924 14.911883 55.9627924 13.1436811 0 13.1436811"></polygon>
                <polygon id="Fill-4" points="15.7211513 21.5358202 55.8276105 21.5358202 55.8276105 18.8847574 15.7211513 18.8847574"></polygon>
                <polygon id="Fill-5" points="15.7211513 27.7208068 55.8276105 27.7208068 55.8276105 25.0722239 15.7211513 25.0722239"></polygon>
                <polygon id="Fill-6" points="15.7211513 33.9033135 55.8276105 33.9033135 55.8276105 31.2547306 15.7211513 31.2547306"></polygon>
                <polygon id="Fill-7" points="15.7211513 40.5272507 38.3666185 40.5272507 38.3666185 36.9958068 15.7211513 36.9958068"></polygon>
                <polygon id="Fill-8" points="15.7211513 46.7097574 38.3666185 46.7097574 38.3666185 43.1758336 15.7211513 43.1758336"></polygon>
                <polygon id="Fill-9" points="15.7211513 52.892264 38.3691219 52.892264 38.3691219 49.3583402 15.7211513 49.3583402"></polygon>
            </g>
        </g>
    </g>
</svg>